<?xml version="1.0" encoding="utf-8"?>
<!-- Generator: Adobe Illustrator 19.2.1, SVG Export Plug-In . SVG Version: 6.00 Build 0)  -->
<svg version="1.1" id="Layer_1" xmlns="http://www.w3.org/2000/svg" xmlns:xlink="http://www.w3.org/1999/xlink" x="0px" y="0px"
	 viewBox="0 0 4000 1861.7" style="enable-background:new 0 0 4000 1861.7;" xml:space="preserve">
<style type="text/css">
	.st0{fill:#404040;}
	.st1{fill:url(#SVGID_1_);}
	.st2{fill:url(#SVGID_2_);}
	.st3{fill:url(#SVGID_3_);}
	.st4{fill:url(#SVGID_4_);}
	.st5{fill:url(#SVGID_5_);}
	.st6{fill:url(#SVGID_6_);}
	.st7{fill:url(#SVGID_7_);}
	.st8{fill:url(#SVGID_8_);}
	.st9{fill:url(#SVGID_9_);}
	.st10{fill:url(#SVGID_10_);}
	.st11{fill:url(#SVGID_11_);}
	.st12{fill:url(#SVGID_12_);}
</style>
<g id="Layer_2">
</g>
<g id="Layer_1_1_">
	<g>
		<path class="st0" d="M1129.8,1276.1H861.4V565.3h79.1v637.9h189.3V1276.1z"/>
		<path class="st0" d="M1814.4,1276.1h-87.3l-92.6-215h-294.9l-91.5,215h-87.3l327.4-730.5L1814.4,1276.1z M1605.4,993.5l-118-274.4
			l-118,274.4H1605.4z"/>
		<path class="st0" d="M2181.8,636.6h-168v639.4h-79.1V636.6H1767v-71.3h414.7V636.6z"/>
		<path class="st0" d="M2636,636.6h-168v639.4h-79.1V636.6h-167.6v-71.3H2636V636.6z"/>
		<path class="st0" d="M2785.7,1276.1h-79.1V565.3h79.1V1276.1z"/>
		<path class="st0" d="M3496.1,1230.1c-26.1,16.8-61.2,31-105.3,42.9c-44,11.6-84.4,17.5-120.6,17.5c-109,0-199.3-35.1-270.6-104.9
			c-71.7-69.8-107.1-158.3-107.1-265.8c0-104.5,36.2-191.9,109-262.8c72.8-70.6,162.8-106,269.9-106c44.4,0,86.2,5.6,125.8,16.4
			c39.2,10.8,72.4,26.1,99.3,45.9v88.8c-29.1-23.5-63.1-42.2-101.5-56c-38.4-13.8-76.5-20.5-113.9-20.5c-87.7,0-161.3,28-220.6,84
			c-59.4,56-88.8,126.2-88.8,210.2c0,84.7,28.4,155.3,85.5,211.7c56.7,56.4,127.3,84.4,211.7,84.4c41.4,0,82.5-6.7,123.6-20.5
			c41.1-13.8,75.8-32.5,104.1-56v90.7H3496.1z"/>
		<path class="st0" d="M3967.2,1276.1h-359.9V565.3h359.9V640h-280.7v215.8h280.7V930h-280.7v271.8h280.7V1276.1z"/>
	</g>
	<g>
		
			<linearGradient id="SVGID_1_" gradientUnits="userSpaceOnUse" x1="3288.2068" y1="1256.4443" x2="3288.2068" y2="843.2471" gradientTransform="matrix(-1 0 0 -1 3692.7393 1863.6823)">
			<stop  offset="0" style="stop-color:#BC2026"/>
			<stop  offset="1" style="stop-color:#641517"/>
		</linearGradient>
		<polygon class="st1" points="600.9,1031.2 208.2,804.6 600.9,577.6 		"/>
		
			<linearGradient id="SVGID_2_" gradientUnits="userSpaceOnUse" x1="314.1674" y1="1588.1091" x2="314.1674" y2="1174.9119" gradientTransform="matrix(1 0 0 -1 -89 1863.6823)">
			<stop  offset="0" style="stop-color:#0A304A"/>
			<stop  offset="1" style="stop-color:#297297"/>
		</linearGradient>
		<polygon class="st2" points="29,699.3 421.3,472.7 29,246.2 		"/>
		
			<linearGradient id="SVGID_3_" gradientUnits="userSpaceOnUse" x1="307.5364" y1="1285.8553" x2="700.2357" y2="1285.8553" gradientTransform="matrix(1 0 0 -1 -99.3536 1863.6823)">
			<stop  offset="0" style="stop-color:#AF2429"/>
			<stop  offset="1" style="stop-color:#E75F44"/>
		</linearGradient>
		<polygon class="st3" points="208.2,351.1 600.9,577.6 208.2,804.6 		"/>
		
			<linearGradient id="SVGID_4_" gradientUnits="userSpaceOnUse" x1="3281.7627" y1="1617.522" x2="3674.0886" y2="1617.522" gradientTransform="matrix(-1 0 0 -1 3703.093 1863.6823)">
			<stop  offset="0" style="stop-color:#1C4F71"/>
			<stop  offset="1" style="stop-color:#1DA1C4"/>
		</linearGradient>
		<polygon class="st4" points="421.3,19.6 29,246.2 421.3,472.7 		"/>
		
			<linearGradient id="SVGID_5_" gradientUnits="userSpaceOnUse" x1="3281.7627" y1="1178.1617" x2="3674.0886" y2="1178.1617" gradientTransform="matrix(-1 0 0 -1 3703.093 1863.6823)">
			<stop  offset="0" style="stop-color:#1C4F71"/>
			<stop  offset="1" style="stop-color:#1DA1C4"/>
		</linearGradient>
		<polygon class="st5" points="29,912.1 421.3,685.5 29,458.9 		"/>
		
			<linearGradient id="SVGID_6_" gradientUnits="userSpaceOnUse" x1="3281.7627" y1="705.0189" x2="3674.0886" y2="705.0189" gradientTransform="matrix(-1 0 0 -1 3703.093 1863.6823)">
			<stop  offset="0" style="stop-color:#1C4F71"/>
			<stop  offset="1" style="stop-color:#1DA1C4"/>
		</linearGradient>
		<polygon class="st6" points="421.3,931.9 29,1158.8 421.3,1385.4 		"/>
		
			<linearGradient id="SVGID_7_" gradientUnits="userSpaceOnUse" x1="314.1674" y1="1172.3914" x2="314.1674" y2="722.8691" gradientTransform="matrix(1 0 0 -1 -89 1863.6823)">
			<stop  offset="0" style="stop-color:#0A304A"/>
			<stop  offset="1" style="stop-color:#297297"/>
		</linearGradient>
		<polygon class="st7" points="421.3,685.5 29,912.1 421.3,1138.7 		"/>
		
			<linearGradient id="SVGID_8_" gradientUnits="userSpaceOnUse" x1="307.5364" y1="846.4951" x2="700.2357" y2="846.4951" gradientTransform="matrix(1 0 0 -1 -99.3536 1863.6823)">
			<stop  offset="0" style="stop-color:#AF2429"/>
			<stop  offset="1" style="stop-color:#E75F44"/>
		</linearGradient>
		<polygon class="st8" points="600.9,1244 208.2,1017 600.9,790.4 		"/>
		
			<linearGradient id="SVGID_9_" gradientUnits="userSpaceOnUse" x1="3288.2068" y1="840.7267" x2="3288.2068" y2="391.2044" gradientTransform="matrix(-1 0 0 -1 3692.7393 1863.6823)">
			<stop  offset="0" style="stop-color:#BC2026"/>
			<stop  offset="1" style="stop-color:#641517"/>
		</linearGradient>
		<polygon class="st9" points="208.2,1017 600.9,1244 208.2,1470.5 		"/>
		
			<linearGradient id="SVGID_10_" gradientUnits="userSpaceOnUse" x1="307.5364" y1="373.3523" x2="700.2357" y2="373.3523" gradientTransform="matrix(1 0 0 -1 -99.3536 1863.6823)">
			<stop  offset="0" style="stop-color:#AF2429"/>
			<stop  offset="1" style="stop-color:#E75F44"/>
		</linearGradient>
		<polygon class="st10" points="208.2,1263.7 600.9,1490.3 208.2,1716.9 		"/>
		
			<linearGradient id="SVGID_11_" gradientUnits="userSpaceOnUse" x1="3281.7627" y1="251.6603" x2="3674.0886" y2="251.6603" gradientTransform="matrix(-1 0 0 -1 3703.093 1863.6823)">
			<stop  offset="0" style="stop-color:#1C4F71"/>
			<stop  offset="1" style="stop-color:#1DA1C4"/>
		</linearGradient>
		<polygon class="st11" points="421.3,1385.4 29,1612 421.3,1838.6 		"/>
		
			<linearGradient id="SVGID_12_" gradientUnits="userSpaceOnUse" x1="314.1674" y1="684.0262" x2="314.1674" y2="229.3731" gradientTransform="matrix(1 0 0 -1 -89 1863.6823)">
			<stop  offset="0" style="stop-color:#0A304A"/>
			<stop  offset="1" style="stop-color:#297297"/>
		</linearGradient>
		<polygon class="st12" points="29,1612 421.3,1385.4 29,1158.8 		"/>
	</g>
</g>
</svg>
